<svg width="13" height="13" viewBox="0 0 13 13" fill="none" xmlns="http://www.w3.org/2000/svg">
<path d="M6.60156 0.886719C9.8125 0.886719 12.4141 3.48828 12.4141 6.69922C12.4141 9.91016 9.8125 12.5117 6.60156 12.5117C3.39062 12.5117 0.789062 9.91016 0.789062 6.69922C0.789062 3.48828 3.39062 0.886719 6.60156 0.886719ZM8.75781 8.22266C8.80469 8.17578 8.85156 8.08203 8.85156 7.98828C8.85156 7.87109 8.78125 7.77734 8.71094 7.70703L7.35156 6.69922V3.32422C7.35156 3.13672 7.16406 2.94922 6.97656 2.94922H6.22656C6.01562 2.94922 5.85156 3.13672 5.85156 3.32422V6.98047C5.85156 7.28516 5.96875 7.54297 6.20312 7.70703L7.77344 8.87891C7.82031 8.92578 7.91406 8.97266 7.98438 8.97266C8.125 8.97266 8.21875 8.90234 8.28906 8.80859L8.75781 8.22266Z" fill="#7A7A7A"/>
</svg>
