<svg width="56" height="58" viewBox="0 0 56 58" fill="none" xmlns="http://www.w3.org/2000/svg">
<g clip-path="url(#clip0_750969_398)">
<path d="M26.9184 20.2149C26.9184 18.427 26.5787 16.7465 25.8993 15.1731C25.1842 13.5998 24.2456 12.2232 23.0835 11.0432C21.9214 9.86323 20.5358 8.93355 18.9267 8.25417C17.3534 7.53903 15.6728 7.18146 13.885 7.18146C12.0971 7.18146 10.4166 7.53903 8.84325 8.25417C7.23419 8.93355 5.83966 9.86323 4.65968 11.0432C3.4797 12.2232 2.55002 13.5998 1.87064 15.1731C1.19125 16.7465 0.851562 18.427 0.851562 20.2149C0.851562 22.0385 1.19125 23.7369 1.87064 25.3103C2.55002 26.8836 3.4797 28.2602 4.65968 29.4402C5.83966 30.6202 7.21631 31.5499 8.78962 32.2292C10.3987 32.9086 12.0971 33.2483 13.885 33.2483C14.3141 33.2483 14.7432 33.2304 15.1722 33.1947C15.6013 33.1589 16.0483 33.0874 16.5131 32.9801C16.1198 34.6965 15.6371 36.3234 15.065 37.861C14.5286 39.3985 13.9565 40.8288 13.3486 42.1518C12.7408 43.4748 12.1329 44.6906 11.525 45.799C10.9172 46.8717 10.3987 47.8014 9.9696 48.5881C9.7193 48.9814 9.50476 49.3479 9.32597 49.6876C9.14719 50.0273 8.98628 50.3223 8.84325 50.5726C8.73598 50.7871 8.62871 51.1 8.52144 51.5112C8.41417 51.9224 8.53932 52.271 8.89689 52.5571C9.00416 52.6644 9.12037 52.7448 9.24552 52.7985C9.37067 52.8521 9.50476 52.8789 9.64779 52.8789C9.89808 52.8789 10.1752 52.7985 10.4791 52.6375C10.7831 52.4766 11.0602 52.3068 11.3105 52.128C11.6681 51.9135 12.115 51.6185 12.6514 51.243C13.1877 50.8676 13.885 50.358 14.7432 49.7144L14.7968 49.6608C16.3343 48.302 17.7289 46.827 18.9804 45.2358C20.2319 43.6447 21.3403 41.973 22.3058 40.2209C23.0924 38.7906 23.7807 37.2978 24.3707 35.7424C24.9607 34.1869 25.4524 32.5868 25.8457 30.942C26.4893 28.296 26.838 25.9986 26.8916 24.0498C26.9452 22.1011 26.9542 20.8228 26.9184 20.2149ZM23.9148 30.4593C23.4857 32.2114 22.9494 33.9098 22.3058 35.5546C21.6621 37.1637 20.9112 38.7102 20.0531 40.1941C19.1949 41.678 18.2116 43.0815 17.1031 44.4045C16.0304 45.7275 14.8504 46.9611 13.5632 48.1053C13.3486 48.2841 13.0805 48.4897 12.7586 48.7222C12.4368 48.9546 12.0971 49.1959 11.7396 49.4462C12.2402 48.5523 12.8302 47.4975 13.5095 46.2817C14.1532 45.066 14.8147 43.7072 15.4941 42.2054C16.1734 40.7036 16.7992 39.0767 17.3713 37.3246C17.9792 35.5725 18.444 33.7132 18.7658 31.7465L19.034 30.0838L17.4786 30.6738C16.8707 30.8526 16.2718 30.9956 15.6818 31.1029C15.0918 31.2102 14.4929 31.2638 13.885 31.2638C12.3832 31.2638 10.9529 30.9777 9.59415 30.4056C8.27114 29.8335 7.10904 29.0469 6.10784 28.0457C5.10665 27.0445 4.31999 25.8645 3.74788 24.5057C3.17577 23.1827 2.88971 21.7524 2.88971 20.2149C2.88971 18.7131 3.17577 17.2828 3.74788 15.924C4.31999 14.601 5.10665 13.4389 6.10784 12.4377C7.10904 11.4365 8.27114 10.6499 9.59415 10.0778C10.9172 9.50566 12.3474 9.2196 13.885 9.2196C15.3868 9.2196 16.8171 9.50566 18.1758 10.0778C19.4988 10.6499 20.6609 11.4365 21.6621 12.4377C22.6633 13.4389 23.45 14.601 24.0221 15.924C24.63 17.2471 24.9339 18.6773 24.9339 20.2149V20.2685V20.3222V20.3758C24.9697 20.9121 24.9607 22.1011 24.9071 23.9426C24.8535 25.784 24.5227 27.9563 23.9148 30.4593ZM55.5061 20.2685C55.5061 18.4449 55.1665 16.7465 54.4871 15.1731C53.8077 13.5998 52.878 12.2232 51.698 11.0432C50.518 9.86323 49.1414 8.93355 47.5681 8.25417C45.959 7.57478 44.2606 7.23509 42.4727 7.23509C40.6849 7.23509 39.0043 7.57478 37.431 8.25417C35.8577 8.93355 34.481 9.86323 33.301 11.0432C32.1211 12.2232 31.1914 13.5998 30.512 15.1731C29.8326 16.7465 29.4929 18.427 29.4929 20.2149C29.4929 22.0385 29.8326 23.7369 30.512 25.3103C31.1914 26.8836 32.1211 28.2602 33.301 29.4402C34.481 30.6202 35.8577 31.5499 37.431 32.2292C39.0043 32.9086 40.6849 33.2483 42.4727 33.2483C42.9018 33.2483 43.3398 33.2304 43.7868 33.1947C44.2337 33.1589 44.6718 33.0874 45.1009 32.9801C44.7075 34.6965 44.2427 36.3234 43.7063 37.861C43.1342 39.3985 42.5442 40.8288 41.9364 42.1518C41.3285 43.4748 40.7206 44.6727 40.1128 45.7454C39.5406 46.8539 39.0222 47.8014 38.5573 48.5881C38.307 48.9814 38.0925 49.339 37.9137 49.6608C37.7349 49.9826 37.5919 50.2686 37.4846 50.5189C37.3773 50.7692 37.2611 51.1 37.136 51.5112C37.0108 51.9224 37.127 52.271 37.4846 52.5571C37.5919 52.6644 37.7081 52.7448 37.8332 52.7985C37.9584 52.8521 38.0925 52.8789 38.2355 52.8789C38.5216 52.8789 38.8076 52.7985 39.0937 52.6375C39.3797 52.4766 39.6658 52.3068 39.9518 52.128C40.3094 51.9135 40.7474 51.6185 41.2659 51.243C41.7844 50.8676 42.4906 50.358 43.3845 49.7144L43.4382 49.6608C44.9399 48.302 46.3166 46.827 47.5681 45.2358C48.8196 43.6447 49.928 41.973 50.8935 40.2209C51.6801 38.7906 52.3685 37.2978 52.9585 35.7424C53.5484 34.1869 54.0401 32.5868 54.4334 30.942C55.0771 28.296 55.4257 25.9986 55.4793 24.0498C55.533 22.1011 55.5419 20.8406 55.5061 20.2685ZM52.5026 30.4593C52.1092 32.2471 51.5729 33.9456 50.8935 35.5546C50.2499 37.1637 49.499 38.7102 48.6408 40.1941C47.7826 41.678 46.8172 43.0815 45.7445 44.4045C44.636 45.7275 43.4382 46.979 42.1509 48.159C41.9364 48.302 41.6682 48.4897 41.3464 48.7222C41.0246 48.9546 40.6849 49.1959 40.3273 49.4462C40.8279 48.5881 41.4179 47.5332 42.0973 46.2817C42.7766 45.066 43.4471 43.7072 44.1086 42.2054C44.7701 40.7036 45.3869 39.0767 45.959 37.3246C46.5669 35.5725 47.0317 33.731 47.3535 31.8002L47.6754 30.1375L46.0663 30.6738C45.4942 30.8526 44.9042 30.9956 44.2963 31.1029C43.6885 31.2102 43.0806 31.2638 42.4727 31.2638C40.9709 31.2638 39.5585 30.9777 38.2355 30.4056C36.8767 29.8335 35.6968 29.0469 34.6956 28.0457C33.6944 27.0445 32.9077 25.8645 32.3356 24.5057C31.7635 23.1827 31.4774 21.7524 31.4774 20.2149C31.4774 18.7131 31.7635 17.2828 32.3356 15.924C32.9077 14.601 33.6944 13.4389 34.6956 12.4377C35.6968 11.4365 36.8589 10.6499 38.1819 10.0778C39.5406 9.50566 40.9709 9.2196 42.4727 9.2196C44.0103 9.2196 45.4405 9.50566 46.7636 10.0778C48.1223 10.6499 49.3023 11.4365 50.3035 12.4377C51.3047 13.4389 52.0913 14.601 52.6635 15.924C53.2356 17.2828 53.5216 18.7131 53.5216 20.2149V20.3222V20.3758C53.5574 20.9121 53.5484 22.1011 53.4948 23.9426C53.4412 25.784 53.1104 27.9563 52.5026 30.4593Z" fill="#1172A9"/>
</g>
<defs>
<clipPath id="clip0_750969_398">
<rect width="55" height="56.8" fill="white" transform="matrix(1 0 0 -1 0.601562 57.5996)"/>
</clipPath>
</defs>
</svg>
