<svg width="75" height="76" viewBox="0 0 75 76" fill="none" xmlns="http://www.w3.org/2000/svg">
<path d="M48.1558 35.6221C49.5995 34.3511 51.7892 30.8853 52.105 28.9431C52.6767 25.4267 47.8755 24.5852 44.816 26.4104C44.1595 26.8021 43.518 27.2392 42.9495 27.7122C39.039 30.966 35.0191 28.7802 32.0889 28.4381C29.1586 28.0961 26.2382 32.1852 24.3466 33.6844C23.5284 34.3329 22.7886 34.428 22.2133 34.3C21.4199 34.1236 20.7565 33.5456 19.9944 33.2628C17.4632 32.3235 14.4141 33.6335 14.4077 36.3333C14.3989 40.0483 16.8503 40.1128 14.6033 39.3998C11.6382 38.459 8.64256 40.8768 7.28284 41.3804C6.19505 41.7833 5.90873 41.4475 5.90153 41.2293C5.85272 57.0364 18.063 64.8423 26.5203 67.6001C28.7034 68.312 31.0933 67.954 32.94 66.5892C34.689 65.2966 36.4152 63.6579 36.7742 62.1473C37.1147 60.7145 38.0636 59.139 39.0171 57.8494C40.1234 56.3532 41.0176 54.6966 41.6183 52.9354C42.7721 49.5525 44.061 48.3809 44.201 47.7915C44.3737 47.0648 51.4031 42.8302 53.593 41.8153C55.7828 40.8004 56.9389 37.1778 55.0867 37.2691C53.2344 37.3604 53.857 36.9769 53.1863 36.8175C52.5155 36.6581 51.7856 35.0084 51.1791 35.5729C51.0566 35.6869 50.9441 35.8664 50.8427 36.0822C50.2774 37.2854 49.1752 38.4464 48.3163 37.4317C47.6155 36.6038 47.9173 35.8803 48.1558 35.6221Z" fill="url(#paint0_linear_750969_296)"/>
<circle cx="37.3159" cy="37.7476" r="31.4595" transform="rotate(9.23412 37.3159 37.7476)" stroke="url(#paint1_linear_750969_296)" stroke-width="2"/>
<defs>
<linearGradient id="paint0_linear_750969_296" x1="55.1556" y1="22.412" x2="7.27792" y2="55.1969" gradientUnits="userSpaceOnUse">
<stop stop-color="#0395D6"/>
<stop offset="1" stop-color="#126DA3"/>
</linearGradient>
<linearGradient id="paint1_linear_750969_296" x1="53.8042" y1="10.2863" x2="12.1527" y2="58.5446" gradientUnits="userSpaceOnUse">
<stop stop-color="#0591D1"/>
<stop offset="1" stop-color="#1171A8"/>
</linearGradient>
</defs>
</svg>
