<svg width="35" height="36" viewBox="0 0 35 36" fill="none" xmlns="http://www.w3.org/2000/svg">
<path d="M16.9336 18.5021C16.8457 18.4923 16.7725 18.463 16.7139 18.4142C16.6553 18.3458 16.626 18.2701 16.626 18.1871C16.626 18.1041 16.6553 18.0333 16.7139 17.9747L23.5986 11.09C23.6572 11.0314 23.7305 11.0021 23.8184 11.0021C23.9062 11.0021 23.9795 11.0314 24.0381 11.09C24.0967 11.1486 24.126 11.2218 24.126 11.3097C24.126 11.3976 24.0967 11.4708 24.0381 11.5294L17.1533 18.4142C17.0947 18.4728 17.0215 18.5021 16.9336 18.5021ZM19.4385 24.1271C19.3018 24.1271 19.2041 24.0636 19.1455 23.9366L16.6992 18.4288L11.1914 15.9825C11.0547 15.924 10.9912 15.8214 11.001 15.6749C11.001 15.6163 11.0205 15.5602 11.0596 15.5065C11.0986 15.4528 11.1475 15.4161 11.2061 15.3966L23.7158 11.0167C23.7646 10.9972 23.8184 10.9948 23.877 11.0094C23.9355 11.024 23.9893 11.0509 24.0381 11.09C24.126 11.1876 24.1504 11.295 24.1113 11.4122L19.7314 23.922C19.7119 23.9806 19.6753 24.0294 19.6216 24.0685C19.5679 24.1075 19.5117 24.1271 19.4531 24.1271H19.4385ZM12.1582 15.7189L17.0654 17.9015C17.1338 17.9308 17.1875 17.9845 17.2266 18.0626L19.4092 22.9698L23.3057 11.8224L12.1582 15.7189Z" fill="white"/>
</svg>
