<svg width="14" height="14" viewBox="0 0 14 14" fill="none" xmlns="http://www.w3.org/2000/svg">
<path d="M6.19003 1.63672L6.83456 0.992188C7.12753 0.728516 7.56698 0.728516 7.83066 0.992188L13.5435 6.67578C13.8072 6.96875 13.8072 7.4082 13.5435 7.67188L7.83066 13.3848C7.56698 13.6484 7.12753 13.6484 6.83456 13.3848L6.19003 12.7402C5.92636 12.4473 5.92636 12.0078 6.19003 11.7148L9.73495 8.3457H1.32675C0.916594 8.3457 0.623625 8.05273 0.623625 7.64258V6.70508C0.623625 6.32422 0.916594 6.00195 1.32675 6.00195H9.73495L6.19003 2.66211C5.92636 2.36914 5.89706 1.92969 6.19003 1.63672Z" fill="#1172A9"/>
</svg>
