<svg width="41" height="40" viewBox="0 0 41 40" fill="none" xmlns="http://www.w3.org/2000/svg">
<rect x="0.59375" y="-0.0100098" width="40" height="40" rx="5" fill="#1172A9"/>
<path d="M27.1313 17.1091C27.1313 17.2654 27.1313 17.3904 27.1313 17.5466C27.1313 21.8904 23.85 26.8591 17.8188 26.8591C15.9438 26.8591 14.225 26.3279 12.7875 25.3904C13.0375 25.4216 13.2875 25.4529 13.5688 25.4529C15.1 25.4529 16.5063 24.9216 17.6313 24.0466C16.1938 24.0154 14.975 23.0779 14.5688 21.7654C14.7875 21.7966 14.975 21.8279 15.1938 21.8279C15.475 21.8279 15.7875 21.7654 16.0375 21.7029C14.5375 21.3904 13.4125 20.0779 13.4125 18.4841V18.4529C13.85 18.7029 14.3813 18.8279 14.9125 18.8591C14.0063 18.2654 13.4438 17.2654 13.4438 16.1404C13.4438 15.5154 13.6 14.9529 13.8813 14.4841C15.5063 16.4529 17.9438 17.7654 20.6625 17.9216C20.6 17.6716 20.5688 17.4216 20.5688 17.1716C20.5688 15.3591 22.0375 13.8904 23.85 13.8904C24.7875 13.8904 25.6313 14.2654 26.2563 14.9216C26.975 14.7654 27.6938 14.4841 28.3188 14.1091C28.0688 14.8904 27.5688 15.5154 26.8813 15.9216C27.5375 15.8591 28.1938 15.6716 28.7563 15.4216C28.3188 16.0779 27.7563 16.6404 27.1313 17.1091Z" fill="white"/>
</svg>
