<svg width="41" height="40" viewBox="0 0 41 40" fill="none" xmlns="http://www.w3.org/2000/svg">
<rect x="0.59375" y="-0.0100098" width="40" height="40" rx="5" fill="#1172A9"/>
<g clip-path="url(#clip0_750969_976)">
<path d="M23.6748 12.8726C22.7147 12.4596 21.6874 12.2531 20.5931 12.2531C19.4987 12.2531 18.4714 12.4596 17.5113 12.8726C16.5511 13.2958 15.7123 13.8663 14.9948 14.5838C14.2772 15.3013 13.7068 16.1402 13.2835 17.1003C12.8705 18.0605 12.6641 19.0877 12.6641 20.1821C12.6641 20.6157 12.7002 21.039 12.7725 21.452C12.8344 21.8753 12.9299 22.2805 13.059 22.6676C13.188 23.0548 13.3455 23.4291 13.5313 23.7904C13.7171 24.1518 13.9288 24.4976 14.1662 24.828L13.1906 27.7704L16.2259 26.7947C16.8557 27.218 17.5397 27.5433 18.2778 27.7704C19.016 27.9975 19.7878 28.1111 20.5931 28.1111C21.6874 28.1111 22.7147 27.9046 23.6748 27.4916C24.635 27.0683 25.4738 26.4979 26.1914 25.7804C26.9089 25.0629 27.4793 24.224 27.9026 23.2639C28.3156 22.3037 28.522 21.2765 28.522 20.1821C28.522 19.0877 28.3156 18.0605 27.9026 17.1003C27.4793 16.1402 26.9089 15.3013 26.1914 14.5838C25.4738 13.8663 24.635 13.2958 23.6748 12.8726ZM25.3706 22.7373C25.3706 22.7373 25.3667 22.789 25.359 22.8922C25.3512 22.9954 25.3009 23.1813 25.208 23.4497C25.1151 23.7181 24.9086 23.9556 24.5885 24.1621C24.2685 24.3686 23.9587 24.5028 23.6593 24.5647C23.4529 24.6163 23.1638 24.6241 22.7921 24.5879C22.4204 24.5518 21.7803 24.3479 20.8718 23.9762C20.2937 23.7285 19.7671 23.4187 19.2922 23.0471C18.8173 22.6651 18.4095 22.2908 18.0688 21.9243C17.7281 21.5578 17.4597 21.2352 17.2635 20.9564C17.0673 20.6777 16.9538 20.5228 16.9228 20.4918C16.8712 20.4092 16.7034 20.1305 16.4195 19.6556C16.1356 19.1806 15.9936 18.6593 15.9936 18.0914C15.9936 17.5236 16.0994 17.09 16.3111 16.7906C16.5227 16.4912 16.6853 16.2847 16.7989 16.1711C16.8918 16.0679 17.0131 15.993 17.1628 15.9466C17.3125 15.9001 17.4597 15.8769 17.6042 15.8769C17.6558 15.8769 17.7049 15.8795 17.7513 15.8846C17.7978 15.8898 17.8365 15.8924 17.8675 15.8924C17.9914 15.8924 18.0869 15.9105 18.154 15.9466C18.2211 15.9827 18.2959 16.0937 18.3785 16.2795C18.4714 16.5067 18.6056 16.8345 18.7812 17.2629C18.9567 17.6914 19.0599 17.9366 19.0909 17.9985C19.1219 18.0501 19.1451 18.1147 19.1606 18.1921C19.1761 18.2695 19.1631 18.3495 19.1219 18.4321C19.0806 18.5044 19.0418 18.5638 19.0057 18.6102C18.9696 18.6567 18.9257 18.7161 18.8741 18.7883C18.8121 18.8606 18.7528 18.9251 18.696 18.9819C18.6392 19.0387 18.5798 19.1032 18.5179 19.1755C18.4663 19.2374 18.4224 19.3045 18.3863 19.3768C18.3501 19.4491 18.363 19.5472 18.425 19.671C18.4972 19.7846 18.6444 20.0014 18.8663 20.3215C19.0883 20.6415 19.3696 20.9564 19.7103 21.2661C20.1543 21.6585 20.544 21.9346 20.8795 22.0947C21.2151 22.2547 21.4448 22.3605 21.5687 22.4121C21.6719 22.4534 21.7752 22.4663 21.8784 22.4508C21.9817 22.4354 22.0643 22.3915 22.1262 22.3192C22.2191 22.2263 22.3198 22.105 22.4282 21.9553C22.5366 21.8056 22.6424 21.6533 22.7456 21.4984C22.8282 21.3849 22.9186 21.3178 23.0167 21.2971C23.1147 21.2765 23.2154 21.2868 23.3186 21.3281C23.4322 21.3694 23.6955 21.4907 24.1084 21.692C24.5214 21.8933 24.7847 22.0198 24.8982 22.0714C25.0118 22.1334 25.1073 22.1824 25.1847 22.2185C25.2622 22.2547 25.3164 22.2986 25.3473 22.3502C25.3783 22.4018 25.3861 22.5309 25.3706 22.7373Z" fill="white"/>
</g>
<defs>
<clipPath id="clip0_750969_976">
<rect width="16" height="16.4" fill="white" transform="matrix(1 0 0 -1 12.5938 28.3591)"/>
</clipPath>
</defs>
</svg>
